<?xml version="1.0" encoding="UTF-8" standalone="no"?>
<!DOCTYPE svg PUBLIC "-//W3C//DTD SVG 1.1//EN"
 "http://www.w3.org/Graphics/SVG/1.1/DTD/svg11.dtd">
<!-- Generated by graphviz version 14.1.2 (0)
 -->
<!-- Title: G Pages: 1 -->
<svg width="702pt" height="782pt"
 viewBox="0.00 0.00 702.00 782.00" xmlns="http://www.w3.org/2000/svg" xmlns:xlink="http://www.w3.org/1999/xlink">
<g id="graph0" class="graph" transform="scale(1 1) rotate(0) translate(4 777.78)">
<title>G</title>
<polygon fill="white" stroke="none" points="-4,4 -4,-777.78 698.25,-777.78 698.25,4 -4,4"/>
<!-- user -->
<g id="node1" class="node">
<title>user</title>
<text xml:space="preserve" text-anchor="start" x="630.75" y="-453.73" font-family="Bitstream-Vera Sans" font-size="7.00">user</text>
<polygon fill="none" stroke="black" points="590.5,-446.62 590.5,-448.62 685.25,-448.62 685.25,-446.62 590.5,-446.62"/>
<text xml:space="preserve" text-anchor="start" x="592.5" y="-437.98" font-family="Bitstream-Vera Sans" font-size="7.00">&#45; id : INTEGER</text>
<text xml:space="preserve" text-anchor="start" x="592.5" y="-424.23" font-family="Bitstream-Vera Sans" font-size="7.00">&#45; username : VARCHAR</text>
<text xml:space="preserve" text-anchor="start" x="592.5" y="-410.48" font-family="Bitstream-Vera Sans" font-size="7.00">&#45; password_hash : VARCHAR</text>
<text xml:space="preserve" text-anchor="start" x="592.5" y="-396.73" font-family="Bitstream-Vera Sans" font-size="7.00">&#45; role : VARCHAR(7)</text>
<text xml:space="preserve" text-anchor="start" x="592.5" y="-382.98" font-family="Bitstream-Vera Sans" font-size="7.00">&#45; user_group : VARCHAR</text>
<text xml:space="preserve" text-anchor="start" x="592.5" y="-369.23" font-family="Bitstream-Vera Sans" font-size="7.00">&#45; privileges : JSON</text>
<polygon fill="none" stroke="black" points="589.5,-363.12 589.5,-463.38 686.25,-463.38 686.25,-363.12 589.5,-363.12"/>
</g>
<!-- problem -->
<g id="node2" class="node">
<title>problem</title>
<text xml:space="preserve" text-anchor="start" x="480.12" y="-371.6" font-family="Bitstream-Vera Sans" font-size="7.00">problem</text>
<polygon fill="none" stroke="black" points="452.25,-364.5 452.25,-366.5 536.5,-366.5 536.5,-364.5 452.25,-364.5"/>
<text xml:space="preserve" text-anchor="start" x="454.25" y="-355.85" font-family="Bitstream-Vera Sans" font-size="7.00">&#45; id : INTEGER</text>
<text xml:space="preserve" text-anchor="start" x="454.25" y="-342.1" font-family="Bitstream-Vera Sans" font-size="7.00">&#45; owner : INTEGER</text>
<text xml:space="preserve" text-anchor="start" x="454.25" y="-328.35" font-family="Bitstream-Vera Sans" font-size="7.00">&#45; name : VARCHAR</text>
<text xml:space="preserve" text-anchor="start" x="454.25" y="-314.6" font-family="Bitstream-Vera Sans" font-size="7.00">&#45; kind : VARCHAR(10)</text>
<text xml:space="preserve" text-anchor="start" x="454.25" y="-300.85" font-family="Bitstream-Vera Sans" font-size="7.00">&#45; obj_kind : VARCHAR(10)</text>
<text xml:space="preserve" text-anchor="start" x="454.25" y="-287.1" font-family="Bitstream-Vera Sans" font-size="7.00">&#45; role_permission : JSON</text>
<text xml:space="preserve" text-anchor="start" x="454.25" y="-273.35" font-family="Bitstream-Vera Sans" font-size="7.00">&#45; value : JSON</text>
<polygon fill="none" stroke="black" points="451.25,-267.25 451.25,-381.25 537.5,-381.25 537.5,-267.25 451.25,-267.25"/>
</g>
<!-- problem&#45;&gt;user -->
<g id="edge1" class="edge">
<title>problem&#45;&gt;user</title>
<path fill="none" stroke="black" d="M553.95,-361.09C560.68,-365.33 567.57,-369.66 574.35,-373.92"/>
<polygon fill="black" stroke="black" points="554.01,-361.13 547.94,-352 549.5,-358.29 545.83,-355.98 545.83,-355.98 545.83,-355.98 549.5,-358.29 543.15,-359.62 554.01,-361.13"/>
<ellipse fill="none" stroke="black" cx="577.85" cy="-376.12" rx="4" ry="4"/>
<text xml:space="preserve" text-anchor="middle" x="576.03" y="-371.87" font-family="Bitstream-Vera Sans" font-size="7.00">+ id</text>
<text xml:space="preserve" text-anchor="middle" x="558.01" y="-348.98" font-family="Bitstream-Vera Sans" font-size="7.00">+ owner</text>
</g>
<!-- user_problem_access -->
<g id="node3" class="node">
<title>user_problem_access</title>
<text xml:space="preserve" text-anchor="start" x="310" y="-420.1" font-family="Bitstream-Vera Sans" font-size="7.00">user_problem_access</text>
<polygon fill="none" stroke="black" points="297.88,-413 297.88,-415 390.38,-415 390.38,-413 297.88,-413"/>
<text xml:space="preserve" text-anchor="start" x="299.88" y="-404.35" font-family="Bitstream-Vera Sans" font-size="7.00">&#45; id : INTEGER</text>
<text xml:space="preserve" text-anchor="start" x="299.88" y="-390.6" font-family="Bitstream-Vera Sans" font-size="7.00">&#45; user_id : INTEGER</text>
<text xml:space="preserve" text-anchor="start" x="299.88" y="-376.85" font-family="Bitstream-Vera Sans" font-size="7.00">&#45; problem_access : INTEGER</text>
<polygon fill="none" stroke="black" points="296.88,-370.75 296.88,-429.75 391.38,-429.75 391.38,-370.75 296.88,-370.75"/>
</g>
<!-- user_problem_access&#45;&gt;user -->
<g id="edge3" class="edge">
<title>user_problem_access&#45;&gt;user</title>
<path fill="none" stroke="black" d="M409.7,-403.13C458.35,-405.29 524.72,-408.25 573.16,-410.41"/>
<polygon fill="black" stroke="black" points="409.64,-403.12 399.85,-398.18 404.31,-402.89 399.99,-402.69 399.99,-402.69 399.99,-402.69 404.31,-402.89 399.45,-407.18 409.64,-403.12"/>
<ellipse fill="none" stroke="black" cx="577.49" cy="-410.6" rx="4" ry="4"/>
<text xml:space="preserve" text-anchor="middle" x="576.36" y="-413.9" font-family="Bitstream-Vera Sans" font-size="7.00">+ id</text>
<text xml:space="preserve" text-anchor="middle" x="413.57" y="-396.01" font-family="Bitstream-Vera Sans" font-size="7.00">+ user_id</text>
</g>
<!-- user_problem_access&#45;&gt;problem -->
<g id="edge2" class="edge">
<title>user_problem_access&#45;&gt;problem</title>
<path fill="none" stroke="black" d="M408.06,-367.98C417.26,-363.27 426.7,-358.43 435.78,-353.77"/>
<polygon fill="black" stroke="black" points="408.26,-367.88 397.31,-368.44 403.52,-370.32 399.66,-372.29 399.66,-372.29 399.66,-372.29 403.52,-370.32 401.42,-376.45 408.26,-367.88"/>
<ellipse fill="none" stroke="black" cx="439.66" cy="-351.79" rx="4" ry="4"/>
<text xml:space="preserve" text-anchor="middle" x="438.04" y="-343.09" font-family="Bitstream-Vera Sans" font-size="7.00">+ id</text>
<text xml:space="preserve" text-anchor="middle" x="427.19" y="-365.95" font-family="Bitstream-Vera Sans" font-size="7.00">+ problem_access</text>
</g>
<!-- method -->
<g id="node4" class="node">
<title>method</title>
<text xml:space="preserve" text-anchor="start" x="481.25" y="-653.85" font-family="Bitstream-Vera Sans" font-size="7.00">method</text>
<polygon fill="none" stroke="black" points="459,-646.75 459,-648.75 529.75,-648.75 529.75,-646.75 459,-646.75"/>
<text xml:space="preserve" text-anchor="start" x="461" y="-638.1" font-family="Bitstream-Vera Sans" font-size="7.00">&#45; id : INTEGER</text>
<text xml:space="preserve" text-anchor="start" x="461" y="-624.35" font-family="Bitstream-Vera Sans" font-size="7.00">&#45; kind : VARCHAR(14)</text>
<text xml:space="preserve" text-anchor="start" x="461" y="-610.6" font-family="Bitstream-Vera Sans" font-size="7.00">&#45; properties : JSON</text>
<text xml:space="preserve" text-anchor="start" x="461" y="-596.85" font-family="Bitstream-Vera Sans" font-size="7.00">&#45; name : VARCHAR</text>
<text xml:space="preserve" text-anchor="start" x="461" y="-583.1" font-family="Bitstream-Vera Sans" font-size="7.00">&#45; parameters : JSON</text>
<polygon fill="none" stroke="black" points="458,-577 458,-663.5 530.75,-663.5 530.75,-577 458,-577"/>
</g>
<!-- preference -->
<g id="node5" class="node">
<title>preference</title>
<text xml:space="preserve" text-anchor="start" x="326.5" y="-560.6" font-family="Bitstream-Vera Sans" font-size="7.00">preference</text>
<polygon fill="none" stroke="black" points="290,-553.5 290,-555.5 398.25,-555.5 398.25,-553.5 290,-553.5"/>
<text xml:space="preserve" text-anchor="start" x="292" y="-544.85" font-family="Bitstream-Vera Sans" font-size="7.00">&#45; id : INTEGER</text>
<text xml:space="preserve" text-anchor="start" x="292" y="-531.1" font-family="Bitstream-Vera Sans" font-size="7.00">&#45; kind : VARCHAR</text>
<text xml:space="preserve" text-anchor="start" x="292" y="-517.35" font-family="Bitstream-Vera Sans" font-size="7.00">&#45; user : INTEGER</text>
<text xml:space="preserve" text-anchor="start" x="292" y="-503.6" font-family="Bitstream-Vera Sans" font-size="7.00">&#45; problem : INTEGER</text>
<text xml:space="preserve" text-anchor="start" x="292" y="-489.85" font-family="Bitstream-Vera Sans" font-size="7.00">&#45; previous_preference : INTEGER</text>
<text xml:space="preserve" text-anchor="start" x="292" y="-476.1" font-family="Bitstream-Vera Sans" font-size="7.00">&#45; method : INTEGER</text>
<text xml:space="preserve" text-anchor="start" x="292" y="-462.35" font-family="Bitstream-Vera Sans" font-size="7.00">&#45; value : JSON</text>
<polygon fill="none" stroke="black" points="289,-456.25 289,-570.25 399.25,-570.25 399.25,-456.25 289,-456.25"/>
</g>
<!-- preference&#45;&gt;user -->
<g id="edge4" class="edge">
<title>preference&#45;&gt;user</title>
<path fill="none" stroke="black" d="M416.64,-488.74C464.66,-472.28 527.34,-450.79 573.55,-434.96"/>
<polygon fill="black" stroke="black" points="416.77,-488.69 405.85,-487.68 411.73,-490.42 407.63,-491.83 407.63,-491.83 407.63,-491.83 411.73,-490.42 408.77,-496.19 416.77,-488.69"/>
<ellipse fill="none" stroke="black" cx="577.72" cy="-433.53" rx="4" ry="4"/>
<text xml:space="preserve" text-anchor="middle" x="576.35" y="-425.42" font-family="Bitstream-Vera Sans" font-size="7.00">+ id</text>
<text xml:space="preserve" text-anchor="middle" x="416.75" y="-485.39" font-family="Bitstream-Vera Sans" font-size="7.00">+ user</text>
</g>
<!-- preference&#45;&gt;problem -->
<g id="edge7" class="edge">
<title>preference&#45;&gt;problem</title>
<path fill="none" stroke="black" d="M406.1,-444.68C406.49,-444.2 406.87,-443.73 407.25,-443.25 420.24,-427.06 433.67,-409.14 445.95,-392.23"/>
<polygon fill="black" stroke="black" points="406.26,-444.49 396.44,-449.36 402.87,-448.61 400.13,-451.96 400.13,-451.96 400.13,-451.96 402.87,-448.61 403.39,-455.07 406.26,-444.49"/>
<ellipse fill="none" stroke="black" cx="448.51" cy="-388.69" rx="4" ry="4"/>
<text xml:space="preserve" text-anchor="middle" x="445.52" y="-388.15" font-family="Bitstream-Vera Sans" font-size="7.00">+ id</text>
<text xml:space="preserve" text-anchor="middle" x="382.83" y="-445.82" font-family="Bitstream-Vera Sans" font-size="7.00">+ problem</text>
</g>
<!-- preference&#45;&gt;method -->
<g id="edge5" class="edge">
<title>preference&#45;&gt;method</title>
<path fill="none" stroke="black" d="M415.31,-563.91C424.67,-570.66 434.11,-577.48 443.04,-583.92"/>
<polygon fill="black" stroke="black" points="415.52,-564.06 410.04,-554.55 411.19,-560.93 407.68,-558.4 407.68,-558.4 407.68,-558.4 411.19,-560.93 404.77,-561.85 415.52,-564.06"/>
<ellipse fill="none" stroke="black" cx="446.43" cy="-586.37" rx="4" ry="4"/>
<text xml:space="preserve" text-anchor="middle" x="444.45" y="-582.35" font-family="Bitstream-Vera Sans" font-size="7.00">+ id</text>
<text xml:space="preserve" text-anchor="middle" x="422.89" y="-551.36" font-family="Bitstream-Vera Sans" font-size="7.00">+ method</text>
</g>
<!-- preference&#45;&gt;preference -->
<g id="edge6" class="edge">
<title>preference&#45;&gt;preference</title>
<path fill="none" stroke="black" d="M322.56,-583.1C327.25,-588.75 334.44,-592.25 344.12,-592.25 354.47,-592.25 361.96,-588.26 366.61,-581.92"/>
<polygon fill="black" stroke="black" points="322.66,-583.27 321.83,-572.34 320.11,-578.59 318.03,-574.78 318.03,-574.78 318.03,-574.78 320.11,-578.59 313.92,-576.64 322.66,-583.27"/>
<ellipse fill="none" stroke="black" cx="368.5" cy="-578.21" rx="4" ry="4"/>
<text xml:space="preserve" text-anchor="middle" x="364.91" y="-577.3" font-family="Bitstream-Vera Sans" font-size="7.00">+ id</text>
<text xml:space="preserve" text-anchor="middle" x="281.71" y="-577.3" font-family="Bitstream-Vera Sans" font-size="7.00">+ previous_preference</text>
</g>
<!-- method_state -->
<g id="node6" class="node">
<title>method_state</title>
<text xml:space="preserve" text-anchor="start" x="170.25" y="-470.73" font-family="Bitstream-Vera Sans" font-size="7.00">method_state</text>
<polygon fill="none" stroke="black" points="154,-463.62 154,-465.62 230.75,-465.62 230.75,-463.62 154,-463.62"/>
<text xml:space="preserve" text-anchor="start" x="156" y="-454.98" font-family="Bitstream-Vera Sans" font-size="7.00">&#45; id : INTEGER</text>
<text xml:space="preserve" text-anchor="start" x="156" y="-441.23" font-family="Bitstream-Vera Sans" font-size="7.00">&#45; user : INTEGER</text>
<text xml:space="preserve" text-anchor="start" x="156" y="-427.48" font-family="Bitstream-Vera Sans" font-size="7.00">&#45; problem : INTEGER</text>
<text xml:space="preserve" text-anchor="start" x="156" y="-413.73" font-family="Bitstream-Vera Sans" font-size="7.00">&#45; method : INTEGER</text>
<text xml:space="preserve" text-anchor="start" x="156" y="-399.98" font-family="Bitstream-Vera Sans" font-size="7.00">&#45; preference : INTEGER</text>
<text xml:space="preserve" text-anchor="start" x="156" y="-386.23" font-family="Bitstream-Vera Sans" font-size="7.00">&#45; value : JSON</text>
<polygon fill="none" stroke="black" points="153,-380.12 153,-480.38 231.75,-480.38 231.75,-380.12 153,-380.12"/>
</g>
<!-- method_state&#45;&gt;user -->
<g id="edge10" class="edge">
<title>method_state&#45;&gt;user</title>
<path fill="none" stroke="black" d="M204.59,-366.14C218.98,-292.26 246.26,-177.72 281,-152.25 382.6,-77.74 461.63,-160.23 545.5,-254.25 571.19,-283.05 593.04,-320.23 608.93,-351.39"/>
<polygon fill="black" stroke="black" points="204.59,-366.13 198.29,-375.1 203.59,-371.37 202.77,-375.62 202.77,-375.62 202.77,-375.62 203.59,-371.37 207.13,-376.8 204.59,-366.13"/>
<ellipse fill="none" stroke="black" cx="610.82" cy="-355.16" rx="4" ry="4"/>
<text xml:space="preserve" text-anchor="middle" x="607.21" y="-352.53" font-family="Bitstream-Vera Sans" font-size="7.00">+ id</text>
<text xml:space="preserve" text-anchor="middle" x="212.4" y="-369.63" font-family="Bitstream-Vera Sans" font-size="7.00">+ user</text>
</g>
<!-- method_state&#45;&gt;problem -->
<g id="edge9" class="edge">
<title>method_state&#45;&gt;problem</title>
<path fill="none" stroke="black" d="M195.97,-366.21C202.19,-306.79 221.68,-221.37 281,-179.25 326.75,-146.76 358.48,-151.5 407.25,-179.25 436.32,-195.8 456.6,-226.46 470.14,-255.34"/>
<polygon fill="black" stroke="black" points="195.99,-365.96 190.57,-375.49 195.49,-371.27 195.08,-375.58 195.08,-375.58 195.08,-375.58 195.49,-371.27 199.53,-376.34 195.99,-365.96"/>
<ellipse fill="none" stroke="black" cx="471.94" cy="-259.32" rx="4" ry="4"/>
<text xml:space="preserve" text-anchor="middle" x="468.16" y="-256.77" font-family="Bitstream-Vera Sans" font-size="7.00">+ id</text>
<text xml:space="preserve" text-anchor="middle" x="178.14" y="-369.6" font-family="Bitstream-Vera Sans" font-size="7.00">+ problem</text>
</g>
<!-- method_state&#45;&gt;method -->
<g id="edge8" class="edge">
<title>method_state&#45;&gt;method</title>
<path fill="none" stroke="black" d="M244.34,-493.51C266.38,-541.34 243.64,-571.7 281,-601.25 326.01,-636.84 394.38,-636.3 441.31,-630.33"/>
<polygon fill="black" stroke="black" points="244.38,-493.58 243.85,-482.62 241.96,-488.83 239.99,-484.97 239.99,-484.97 239.99,-484.97 241.96,-488.83 235.83,-486.71 244.38,-493.58"/>
<ellipse fill="none" stroke="black" cx="445.65" cy="-629.73" rx="4" ry="4"/>
<text xml:space="preserve" text-anchor="middle" x="444.48" y="-622.47" font-family="Bitstream-Vera Sans" font-size="7.00">+ id</text>
<text xml:space="preserve" text-anchor="middle" x="255.43" y="-477.72" font-family="Bitstream-Vera Sans" font-size="7.00">+ method</text>
</g>
<!-- method_state&#45;&gt;preference -->
<g id="edge11" class="edge">
<title>method_state&#45;&gt;preference</title>
<path fill="none" stroke="black" d="M248.65,-460.89C256.75,-465.38 265.18,-470.05 273.52,-474.67"/>
<polygon fill="black" stroke="black" points="248.57,-460.84 242,-452.06 243.9,-458.25 240.11,-456.15 240.11,-456.15 240.11,-456.15 243.9,-458.25 237.64,-459.93 248.57,-460.84"/>
<ellipse fill="none" stroke="black" cx="277.21" cy="-476.72" rx="4" ry="4"/>
<text xml:space="preserve" text-anchor="middle" x="275.52" y="-472.25" font-family="Bitstream-Vera Sans" font-size="7.00">+ id</text>
<text xml:space="preserve" text-anchor="middle" x="259.78" y="-449.18" font-family="Bitstream-Vera Sans" font-size="7.00">+ preference</text>
</g>
<!-- results -->
<g id="node7" class="node">
<title>results</title>
<text xml:space="preserve" text-anchor="start" x="41.38" y="-622.73" font-family="Bitstream-Vera Sans" font-size="7.00">results</text>
<polygon fill="none" stroke="black" points="9,-615.62 9,-617.62 94.75,-617.62 94.75,-615.62 9,-615.62"/>
<text xml:space="preserve" text-anchor="start" x="11" y="-606.98" font-family="Bitstream-Vera Sans" font-size="7.00">&#45; id : INTEGER</text>
<text xml:space="preserve" text-anchor="start" x="11" y="-593.23" font-family="Bitstream-Vera Sans" font-size="7.00">&#45; user : INTEGER</text>
<text xml:space="preserve" text-anchor="start" x="11" y="-579.48" font-family="Bitstream-Vera Sans" font-size="7.00">&#45; problem : INTEGER</text>
<text xml:space="preserve" text-anchor="start" x="11" y="-565.73" font-family="Bitstream-Vera Sans" font-size="7.00">&#45; method : INTEGER</text>
<text xml:space="preserve" text-anchor="start" x="11" y="-551.98" font-family="Bitstream-Vera Sans" font-size="7.00">&#45; method_state : INTEGER</text>
<text xml:space="preserve" text-anchor="start" x="11" y="-538.23" font-family="Bitstream-Vera Sans" font-size="7.00">&#45; value : JSON</text>
<polygon fill="none" stroke="black" points="8,-532.12 8,-632.38 95.75,-632.38 95.75,-532.12 8,-532.12"/>
</g>
<!-- results&#45;&gt;user -->
<g id="edge15" class="edge">
<title>results&#45;&gt;user</title>
<path fill="none" stroke="black" d="M70.56,-645.59C83.69,-679.77 105.41,-719 139.75,-739.25 222.16,-787.84 439.66,-791.83 545.5,-704.25 612.85,-648.52 631.34,-543.65 635.97,-476.2"/>
<polygon fill="black" stroke="black" points="70.64,-645.8 71.42,-634.86 68.8,-640.79 67.31,-636.73 67.31,-636.73 67.31,-636.73 68.8,-640.79 62.97,-637.96 70.64,-645.8"/>
<ellipse fill="none" stroke="black" cx="636.24" cy="-471.84" rx="4" ry="4"/>
<text xml:space="preserve" text-anchor="middle" x="630.89" y="-470.45" font-family="Bitstream-Vera Sans" font-size="7.00">+ id</text>
<text xml:space="preserve" text-anchor="middle" x="57.33" y="-639.2" font-family="Bitstream-Vera Sans" font-size="7.00">+ user</text>
</g>
<!-- results&#45;&gt;problem -->
<g id="edge12" class="edge">
<title>results&#45;&gt;problem</title>
<path fill="none" stroke="black" d="M64.07,-518.34C85.61,-417.78 143.48,-226.44 281,-152.25 330.38,-125.61 359.51,-122.76 407.25,-152.25 443.57,-174.68 465.09,-217.6 477.54,-254.95"/>
<polygon fill="black" stroke="black" points="64.09,-518.25 57.64,-527.12 63,-523.47 62.11,-527.71 62.11,-527.71 62.11,-527.71 63,-523.47 66.45,-528.96 64.09,-518.25"/>
<ellipse fill="none" stroke="black" cx="478.84" cy="-259.03" rx="4" ry="4"/>
<text xml:space="preserve" text-anchor="middle" x="485.84" y="-256.67" font-family="Bitstream-Vera Sans" font-size="7.00">+ id</text>
<text xml:space="preserve" text-anchor="middle" x="45.1" y="-521.72" font-family="Bitstream-Vera Sans" font-size="7.00">+ problem</text>
</g>
<!-- results&#45;&gt;method -->
<g id="edge13" class="edge">
<title>results&#45;&gt;method</title>
<path fill="none" stroke="black" d="M77.7,-645.45C91.67,-672.03 111.98,-700.22 139.75,-715.25 239.47,-769.22 371.91,-701.86 443.06,-656.05"/>
<polygon fill="black" stroke="black" points="77.67,-645.38 77.2,-634.43 75.27,-640.62 73.33,-636.75 73.33,-636.75 73.33,-636.75 75.27,-640.62 69.16,-638.47 77.67,-645.38"/>
<ellipse fill="none" stroke="black" cx="446.4" cy="-653.87" rx="4" ry="4"/>
<text xml:space="preserve" text-anchor="middle" x="444.54" y="-644.76" font-family="Bitstream-Vera Sans" font-size="7.00">+ id</text>
<text xml:space="preserve" text-anchor="middle" x="88.78" y="-639.25" font-family="Bitstream-Vera Sans" font-size="7.00">+ method</text>
</g>
<!-- results&#45;&gt;method_state -->
<g id="edge14" class="edge">
<title>results&#45;&gt;method_state</title>
<path fill="none" stroke="black" d="M109.07,-520.58C118.98,-509.7 129.26,-498.42 139.06,-487.66"/>
<polygon fill="black" stroke="black" points="109.06,-520.59 98.99,-524.95 105.46,-524.54 102.55,-527.74 102.55,-527.74 102.55,-527.74 105.46,-524.54 105.65,-531.02 109.06,-520.59"/>
<ellipse fill="none" stroke="black" cx="142.06" cy="-484.37" rx="4" ry="4"/>
<text xml:space="preserve" text-anchor="middle" x="139.47" y="-474.39" font-family="Bitstream-Vera Sans" font-size="7.00">+ id</text>
<text xml:space="preserve" text-anchor="middle" x="77.34" y="-521.58" font-family="Bitstream-Vera Sans" font-size="7.00">+ method_state</text>
</g>
<!-- solution_archive -->
<g id="node8" class="node">
<title>solution_archive</title>
<text xml:space="preserve" text-anchor="start" x="166.12" y="-692.85" font-family="Bitstream-Vera Sans" font-size="7.00">solution_archive</text>
<polygon fill="none" stroke="black" points="148.75,-685.75 148.75,-687.75 236,-687.75 236,-685.75 148.75,-685.75"/>
<text xml:space="preserve" text-anchor="start" x="150.75" y="-677.1" font-family="Bitstream-Vera Sans" font-size="7.00">&#45; id : INTEGER</text>
<text xml:space="preserve" text-anchor="start" x="150.75" y="-663.35" font-family="Bitstream-Vera Sans" font-size="7.00">&#45; user : INTEGER</text>
<text xml:space="preserve" text-anchor="start" x="150.75" y="-649.6" font-family="Bitstream-Vera Sans" font-size="7.00">&#45; problem : INTEGER</text>
<text xml:space="preserve" text-anchor="start" x="150.75" y="-635.85" font-family="Bitstream-Vera Sans" font-size="7.00">&#45; method : INTEGER</text>
<text xml:space="preserve" text-anchor="start" x="150.75" y="-622.1" font-family="Bitstream-Vera Sans" font-size="7.00">&#45; preference : INTEGER</text>
<text xml:space="preserve" text-anchor="start" x="150.75" y="-608.35" font-family="Bitstream-Vera Sans" font-size="7.00">&#45; decision_variables : JSON</text>
<text xml:space="preserve" text-anchor="start" x="150.75" y="-594.6" font-family="Bitstream-Vera Sans" font-size="7.00">&#45; objectives : JSON</text>
<text xml:space="preserve" text-anchor="start" x="150.75" y="-580.85" font-family="Bitstream-Vera Sans" font-size="7.00">&#45; constraints : JSON</text>
<text xml:space="preserve" text-anchor="start" x="150.75" y="-567.1" font-family="Bitstream-Vera Sans" font-size="7.00">&#45; extra_funcs : JSON</text>
<text xml:space="preserve" text-anchor="start" x="150.75" y="-553.35" font-family="Bitstream-Vera Sans" font-size="7.00">&#45; other_info : JSON</text>
<text xml:space="preserve" text-anchor="start" x="150.75" y="-539.6" font-family="Bitstream-Vera Sans" font-size="7.00">&#45; saved : BOOLEAN</text>
<text xml:space="preserve" text-anchor="start" x="150.75" y="-525.85" font-family="Bitstream-Vera Sans" font-size="7.00">&#45; current : BOOLEAN</text>
<text xml:space="preserve" text-anchor="start" x="150.75" y="-512.1" font-family="Bitstream-Vera Sans" font-size="7.00">&#45; chosen : BOOLEAN</text>
<polygon fill="none" stroke="black" points="147.75,-506 147.75,-702.5 237,-702.5 237,-506 147.75,-506"/>
</g>
<!-- solution_archive&#45;&gt;user -->
<g id="edge18" class="edge">
<title>solution_archive&#45;&gt;user</title>
<path fill="none" stroke="black" d="M253.66,-642.33C328.78,-684.41 457.91,-738.54 545.5,-676.25 609.08,-631.03 628.81,-538.28 634.71,-475.92"/>
<polygon fill="black" stroke="black" points="253.75,-642.38 247.29,-633.52 249.11,-639.74 245.35,-637.6 245.35,-637.6 245.35,-637.6 249.11,-639.74 242.83,-641.34 253.75,-642.38"/>
<ellipse fill="none" stroke="black" cx="635.07" cy="-471.81" rx="4" ry="4"/>
<text xml:space="preserve" text-anchor="middle" x="641.08" y="-470.42" font-family="Bitstream-Vera Sans" font-size="7.00">+ id</text>
<text xml:space="preserve" text-anchor="middle" x="254.52" y="-630.61" font-family="Bitstream-Vera Sans" font-size="7.00">+ user</text>
</g>
<!-- solution_archive&#45;&gt;problem -->
<g id="edge17" class="edge">
<title>solution_archive&#45;&gt;problem</title>
<path fill="none" stroke="black" d="M244.92,-492.4C263.31,-431.44 237.16,-397.83 281,-358.25 303.05,-338.34 379.76,-330.04 434.64,-326.62"/>
<polygon fill="black" stroke="black" points="244.98,-492.21 237.55,-500.27 243.3,-497.27 241.93,-501.38 241.93,-501.38 241.93,-501.38 243.3,-497.27 246.09,-503.12 244.98,-492.21"/>
<ellipse fill="none" stroke="black" cx="439.1" cy="-326.35" rx="4" ry="4"/>
<text xml:space="preserve" text-anchor="middle" x="437.97" y="-319.44" font-family="Bitstream-Vera Sans" font-size="7.00">+ id</text>
<text xml:space="preserve" text-anchor="middle" x="224.84" y="-495.36" font-family="Bitstream-Vera Sans" font-size="7.00">+ problem</text>
</g>
<!-- solution_archive&#45;&gt;method -->
<g id="edge16" class="edge">
<title>solution_archive&#45;&gt;method</title>
<path fill="none" stroke="black" d="M254.37,-627.97C263.18,-630.57 272.24,-632.79 281,-634.25 335.39,-643.3 398.53,-637.05 441.74,-630.25"/>
<polygon fill="black" stroke="black" points="254.4,-627.99 246.2,-620.72 249.31,-626.4 245.18,-625.11 245.18,-625.11 245.18,-625.11 249.31,-626.4 243.52,-629.31 254.4,-627.99"/>
<ellipse fill="none" stroke="black" cx="445.94" cy="-629.57" rx="4" ry="4"/>
<text xml:space="preserve" text-anchor="middle" x="444.75" y="-631.94" font-family="Bitstream-Vera Sans" font-size="7.00">+ id</text>
<text xml:space="preserve" text-anchor="middle" x="260.29" y="-618.26" font-family="Bitstream-Vera Sans" font-size="7.00">+ method</text>
</g>
<!-- solution_archive&#45;&gt;preference -->
<g id="edge19" class="edge">
<title>solution_archive&#45;&gt;preference</title>
<path fill="none" stroke="black" d="M253.8,-567.53C260.28,-563.59 266.91,-559.57 273.48,-555.57"/>
<polygon fill="black" stroke="black" points="253.74,-567.57 242.86,-568.91 249.18,-570.34 245.48,-572.59 245.48,-572.59 245.48,-572.59 249.18,-570.34 247.53,-576.6 253.74,-567.57"/>
<ellipse fill="none" stroke="black" cx="277.31" cy="-553.24" rx="4" ry="4"/>
<text xml:space="preserve" text-anchor="middle" x="275.53" y="-544.26" font-family="Bitstream-Vera Sans" font-size="7.00">+ id</text>
<text xml:space="preserve" text-anchor="middle" x="265.16" y="-566.28" font-family="Bitstream-Vera Sans" font-size="7.00">+ preference</text>
</g>
<!-- log -->
<g id="node9" class="node">
<title>log</title>
<text xml:space="preserve" text-anchor="start" x="489.12" y="-80.85" font-family="Bitstream-Vera Sans" font-size="7.00">log</text>
<polygon fill="none" stroke="black" points="454.88,-73.75 454.88,-75.75 533.88,-75.75 533.88,-73.75 454.88,-73.75"/>
<text xml:space="preserve" text-anchor="start" x="456.88" y="-65.1" font-family="Bitstream-Vera Sans" font-size="7.00">&#45; id : INTEGER</text>
<text xml:space="preserve" text-anchor="start" x="456.88" y="-51.35" font-family="Bitstream-Vera Sans" font-size="7.00">&#45; user : INTEGER</text>
<text xml:space="preserve" text-anchor="start" x="456.88" y="-37.6" font-family="Bitstream-Vera Sans" font-size="7.00">&#45; action : VARCHAR</text>
<text xml:space="preserve" text-anchor="start" x="456.88" y="-23.85" font-family="Bitstream-Vera Sans" font-size="7.00">&#45; value : JSON</text>
<text xml:space="preserve" text-anchor="start" x="456.88" y="-10.1" font-family="Bitstream-Vera Sans" font-size="7.00">&#45; timestamp : VARCHAR</text>
<polygon fill="none" stroke="black" points="453.88,-4 453.88,-90.5 534.88,-90.5 534.88,-4 453.88,-4"/>
</g>
<!-- log&#45;&gt;user -->
<g id="edge20" class="edge">
<title>log&#45;&gt;user</title>
<path fill="none" stroke="black" d="M542.51,-102.96C543.56,-104.71 544.56,-106.48 545.5,-108.25 587.26,-186.65 612.6,-286.8 625.68,-350.5"/>
<polygon fill="black" stroke="black" points="542.52,-102.97 540.92,-92.12 539.64,-98.47 537.31,-94.83 537.31,-94.83 537.31,-94.83 539.64,-98.47 533.34,-96.97 542.52,-102.97"/>
<ellipse fill="none" stroke="black" cx="626.55" cy="-354.83" rx="4" ry="4"/>
<text xml:space="preserve" text-anchor="middle" x="621.81" y="-352.59" font-family="Bitstream-Vera Sans" font-size="7.00">+ id</text>
<text xml:space="preserve" text-anchor="middle" x="527.2" y="-97.36" font-family="Bitstream-Vera Sans" font-size="7.00">+ user</text>
</g>
<!-- utopia -->
<g id="node10" class="node">
<title>utopia</title>
<text xml:space="preserve" text-anchor="start" x="333.62" y="-296.6" font-family="Bitstream-Vera Sans" font-size="7.00">utopia</text>
<polygon fill="none" stroke="black" points="299.75,-289.5 299.75,-291.5 388.5,-291.5 388.5,-289.5 299.75,-289.5"/>
<text xml:space="preserve" text-anchor="start" x="301.75" y="-280.85" font-family="Bitstream-Vera Sans" font-size="7.00">&#45; id : INTEGER</text>
<text xml:space="preserve" text-anchor="start" x="301.75" y="-267.1" font-family="Bitstream-Vera Sans" font-size="7.00">&#45; problem : INTEGER</text>
<text xml:space="preserve" text-anchor="start" x="301.75" y="-253.35" font-family="Bitstream-Vera Sans" font-size="7.00">&#45; map_json : VARCHAR</text>
<text xml:space="preserve" text-anchor="start" x="301.75" y="-239.6" font-family="Bitstream-Vera Sans" font-size="7.00">&#45; schedule_dict : JSONB</text>
<text xml:space="preserve" text-anchor="start" x="301.75" y="-225.85" font-family="Bitstream-Vera Sans" font-size="7.00">&#45; years : ARRAY</text>
<text xml:space="preserve" text-anchor="start" x="301.75" y="-212.1" font-family="Bitstream-Vera Sans" font-size="7.00">&#45; stand_id_field : VARCHAR</text>
<text xml:space="preserve" text-anchor="start" x="301.75" y="-198.35" font-family="Bitstream-Vera Sans" font-size="7.00">&#45; stand_descriptor : JSONB</text>
<polygon fill="none" stroke="black" points="298.75,-192.25 298.75,-306.25 389.5,-306.25 389.5,-192.25 298.75,-192.25"/>
</g>
<!-- utopia&#45;&gt;problem -->
<g id="edge21" class="edge">
<title>utopia&#45;&gt;problem</title>
<path fill="none" stroke="black" d="M406.68,-280.39C416.28,-285.25 426.17,-290.25 435.68,-295.06"/>
<polygon fill="black" stroke="black" points="406.61,-280.36 399.72,-271.83 401.85,-277.95 397.99,-275.99 397.99,-275.99 397.99,-275.99 401.85,-277.95 395.66,-279.86 406.61,-280.36"/>
<ellipse fill="none" stroke="black" cx="439.55" cy="-297.02" rx="4" ry="4"/>
<text xml:space="preserve" text-anchor="middle" x="437.94" y="-292.4" font-family="Bitstream-Vera Sans" font-size="7.00">+ id</text>
<text xml:space="preserve" text-anchor="middle" x="414.27" y="-269.04" font-family="Bitstream-Vera Sans" font-size="7.00">+ problem</text>
</g>
</g>
</svg>
